<?xml version="1.0" encoding="UTF-8"?><svg id="Layer_1" xmlns="http://www.w3.org/2000/svg" viewBox="0 0 776.85 135.96"><defs><style>.cls-1{fill:#fff;}</style></defs><path class="cls-1" d="M181.08,69.09l-15.39.09-22.09-25.17-18.86-.02-.02,25.19h-11.96s0-68.65,0-68.65l43.25.05c4.91,0,9.07,2.72,12.22,6.08,3.72,4.65,6.02,10.07,5.78,16.1-.38,9.65-6.86,17.89-16.19,20.89l16.01,17.34,7.26,8.09ZM154.53,12.26l-29.79-.04-.02,19.89,28.91-.02c3.76-.63,6.51-3.35,7.76-6.44,2.17-5.38-.84-12.95-6.87-13.39Z"/><path class="cls-1" d="M58.5,35.06l-36.28,34.66H4.49s20.92-19.6,20.92-19.6l7.06-6.73,5.83-5.55L76.01,1.64c1.88-1.81,4.78-2.03,7.06-1.13,2,.79,4.15,2.9,4.15,5.59l.02,63.01h-12.06s-.03-49.82-.03-49.82l-9.64,9.08-7.02,6.68Z"/><path class="cls-1" d="M305.13,68.95v-12.01s41.28,0,41.28,0c2.67,0,5.16-1.05,6.93-2.87,2.43-2.5,2.43-6.49.01-8.95-1.68-1.71-3.96-2.69-6.4-2.71l-24.72-.19c-6.61-.05-12.69-4.21-16.4-9.48-5.13-7.29-4.78-16.81.57-23.75,3.96-5.13,9.63-8.1,16.19-8.3l41.11.03.08,11.67-41.21.16c-4.88.02-7.94,4.99-7.69,9.29.28,4.79,4.12,8.29,9.06,8.32l24.02.12c5.58.03,10.66,2.83,14.37,6.73,5.36,5.62,6.93,13.66,3.48,20.61-3.72,7.49-11.45,11.41-19.7,11.4l-40.99-.08Z"/><polygon class="cls-1" points="228.11 69.13 215.47 69.16 215.47 12.29 189.19 12.28 189.15 .57 253.57 .58 253.58 12.27 228.12 12.3 228.11 69.13"/><rect class="cls-1" x="271.14" y=".49" width="12.27" height="68.75"/><path class="cls-1" d="M495.39,34.95c8.58,6.61,10.14,19.31,3.06,27.72-3.63,4.14-8.36,6.58-14.04,6.59l-45.81.02V.45s43.91.14,43.91.14c6.1.02,10.98,3.41,14.4,8.03,5.84,7.9,5.96,19.39-1.52,26.33ZM487.14,14.97c-1.14-1.47-3.37-3.12-5.34-3.12l-31.5-.04.04,17.33,30.59.02c3.43-.18,6.22-2.19,7.49-4.89,1.45-3.09,1.03-6.32-1.27-9.3ZM490,53.12c1.29-3.01.83-6.31-1.11-8.9-1.48-1.97-4.03-3.7-7.15-3.7l-31.42-.04.02,17.62,32.37.03c3.21-.08,5.96-1.9,7.3-5Z"/><path class="cls-1" d="M776.83,35.81c-.29,9.66-4.18,17.91-11.15,24.25-6.5,5.91-14.83,9.37-23.82,9.38l-36.45.05V.23s34.22.07,34.22.07c5.55.01,10.55.76,15.71,2.67,13.39,5.28,21.92,18.24,21.48,32.85ZM761.65,45.27c4.88-8.98,3.16-19.81-3.56-26.98-4.92-4.32-10.97-6.37-17.55-6.36l-23.19.04.09,30.36-.06,15.61,22.29.03c9,.01,17.55-4.54,21.99-12.71Z"/><polygon class="cls-1" points="683.29 69.11 676.51 69.17 649.23 42.11 646.11 39 625.91 18.62 625.89 69.25 614.04 69.17 614.05 .53 624.46 .49 631.83 8.09 635.56 11.9 671.23 48.14 671.31 .47 683.29 .5 683.29 69.11"/><path class="cls-1" d="M570.94,25.29l-48.61,44.31h-17.79s41.22-38.19,41.22-38.19l32.03-29.8c1.73-1.61,4.61-1.89,6.54-1.2,1.68.61,4.01,2.69,4.01,5.14l.05,64.12h-11.86s-.05-49.34-.05-49.34l-5.54,4.96Z"/><rect class="cls-1" y="96.3" width="368.71" height="8.18"/><path class="cls-1" d="M391.99,132.97v-31.97c0-2.11,1.61-3.61,3.51-3.61,1.61,0,2.76.61,3.8,2.28l11.51,19.21,11.28-19.21c.98-1.61,2.07-2.28,3.62-2.28,1.96,0,3.57,1.5,3.57,3.5v32.08c0,1.5-1.21,2.66-2.76,2.66s-2.82-1.17-2.82-2.66v-26.25l-9.66,15.76c-.86,1.28-1.9,2.17-3.39,2.17s-2.47-.78-3.34-2.17l-9.78-15.65v26.14c0,1.5-1.27,2.66-2.82,2.66s-2.7-1.17-2.7-2.66Z"/><path class="cls-1" d="M443.82,120.03v-19.93c0-1.55,1.27-2.72,2.88-2.72s2.76,1.17,2.76,2.72v19.87c0,7.22,4.14,11.1,10.47,11.1s10.41-3.94,10.41-11.05v-19.98c0-1.55,1.32-2.66,2.88-2.66s2.7,1.11,2.7,2.66v19.98c0,9.49-6.5,15.93-15.99,15.93s-16.11-6.44-16.11-15.93Z"/><path class="cls-1" d="M489.15,132.47c-.92-.61-1.73-1.39-1.73-2.66,0-1.39,1.09-2.44,2.53-2.44.81,0,1.5.39,2.53,1.05,2.13,1.39,4.89,2.5,8.28,2.5,4.14,0,6.9-2.16,6.9-5.5,0-3.61-3.51-5.11-7.88-6.99-6.16-2.61-10.59-5.22-10.59-11.1s4.83-10.21,12.25-10.21c3.45,0,6.33.67,8.34,1.78,1.32.61,2.24,1.44,2.24,2.66s-.86,2.5-2.36,2.5c-.75,0-1.61-.39-2.07-.61-1.55-.67-3.51-1.39-6.1-1.39-4.37,0-6.67,2.33-6.67,5,0,3.61,4.2,5.11,8.4,6.94,5.47,2.28,10.07,5,10.07,11.1,0,6.83-5.7,10.77-12.83,10.77-3.8,0-7.77-.89-11.33-3.39Z"/><path class="cls-1" d="M525.68,132.97v-32.86c0-1.55,1.21-2.72,2.82-2.72s2.82,1.17,2.82,2.72v32.86c0,1.5-1.15,2.66-2.82,2.66s-2.82-1.17-2.82-2.66Z"/><path class="cls-1" d="M543.91,116.54c0-11.27,8.63-19.43,19.67-19.43,4.26,0,7.54,1,9.84,2.39,1.27.72,2.01,1.44,2.01,2.72s-1.04,2.22-2.36,2.22c-.86,0-1.5-.39-2.24-.72-1.55-.78-3.8-1.67-7.02-1.67-8.23,0-14.09,6.05-14.09,14.49s5.75,14.49,14.27,14.49c3.22,0,5.75-.89,7.42-1.67.69-.33,1.44-.78,2.3-.78,1.21,0,2.36.83,2.36,2.28,0,1.05-.69,1.78-1.5,2.39-2.3,1.5-6.04,2.72-10.59,2.72-12.08,0-20.08-8.49-20.08-19.43Z"/><path class="cls-1" d="M635.5,135.63c-1.04,0-1.73-.61-2.7-1.55l-4.95-5c-3.34,4.72-7.02,6.88-11.97,6.88-7.02,0-12.71-4.55-12.71-11.38,0-5.99,4.2-8.99,8.86-11.55-2.82-3.05-4.08-5.16-4.08-7.83,0-4.72,3.8-8.16,9.15-8.16s9.03,3.44,9.03,8.05c0,3.94-3.05,6.49-6.85,8.66l7.71,7.6,4.26-7.72c.52-1,1.21-1.72,2.36-1.72,1.32,0,2.47.89,2.47,2.16,0,.5-.11,1.11-.58,1.89l-5,8.83,6.04,5.99c.92.83,1.44,1.55,1.44,2.5,0,1.33-1.09,2.33-2.47,2.33ZM615.88,131.36c3.57,0,6.04-1.72,8.57-5.66l-9.43-9.6c-3.28,1.83-6.56,4.05-6.56,8.16s3.34,7.1,7.42,7.1ZM616.22,110.76c2.82-1.5,4.89-3,4.89-5.44s-1.61-3.89-4.03-3.89-4.03,1.61-4.03,3.94c0,2.05,1.27,3.55,3.16,5.38Z"/><path class="cls-1" d="M675.82,97.39c1.55,0,2.82,1.17,2.82,2.72v25.64c0,6.94-5.01,10.21-10.36,10.21-1.78,0-3.51-.39-5-1.11-1.32-.56-2.19-1.28-2.19-2.66s1.04-2.22,2.3-2.22c.81,0,1.32.33,2.13.56.75.28,1.55.44,2.42.44,2.65,0,5.06-1.33,5.06-5.5v-25.37c0-1.55,1.15-2.72,2.82-2.72Z"/><path class="cls-1" d="M690.95,116.59c0-11.16,8.69-19.48,19.73-19.48s19.79,8.33,19.79,19.48-8.69,19.37-19.79,19.37-19.73-8.21-19.73-19.37ZM710.68,130.97c7.25,0,13.92-5.33,13.92-14.38s-6.67-14.49-13.92-14.49-13.92,5.33-13.92,14.49,6.79,14.38,13.92,14.38Z"/><path class="cls-1" d="M750.78,132.97v-12.88l-12.31-18.32c-.4-.61-.63-1.22-.63-1.78,0-1.5,1.09-2.61,2.7-2.61.98,0,1.78.39,2.36,1.33,3.51,5.44,7.19,10.82,10.7,16.37,3.51-5.5,7.02-10.88,10.59-16.21.63-.94,1.44-1.5,2.59-1.5,1.32,0,2.53,1.05,2.53,2.5,0,.5-.23,1.11-.58,1.67l-12.31,18.54v12.88c0,1.5-1.27,2.66-2.82,2.66s-2.82-1.17-2.82-2.66Z"/></svg>