<svg viewBox="0 0 24 24" fill="none" xmlns="http://www.w3.org/2000/svg">
<path d="M12.04 2c-5.46 0-9.91 4.45-9.91 9.91 0 1.75.46 3.45 1.32 4.95L2 22l5.25-1.38c1.45.79 3.08 1.21 4.79 1.21h.01c5.46 0 9.91-4.45 9.91-9.91 0-2.65-1.03-5.14-2.9-7.01A9.82 9.82 0 0 0 12.04 2zm0 18.14h-.01c-1.5 0-2.97-.4-4.25-1.16l-.3-.18-3.12.82.83-3.04-.2-.31a8.18 8.18 0 0 1-1.26-4.36c0-4.54 3.7-8.24 8.25-8.24 2.2 0 4.27.86 5.83 2.42a8.18 8.18 0 0 1 2.41 5.82c0 4.55-3.7 8.24-8.25 8.24zm4.52-6.16c-.25-.12-1.47-.72-1.7-.8-.23-.08-.39-.12-.56.12-.17.25-.64.8-.78.96-.14.17-.29.19-.54.06-.25-.12-1.04-.38-1.99-1.22-.74-.66-1.23-1.47-1.38-1.72-.14-.25-.02-.38.11-.5.11-.11.25-.29.37-.43.12-.14.16-.25.25-.41.08-.17.04-.31-.02-.43-.06-.12-.56-1.34-.76-1.84-.2-.48-.4-.42-.56-.42-.14 0-.31-.02-.47-.02-.17 0-.43.06-.66.31-.23.25-.86.84-.86 2.04 0 1.2.88 2.37 1 2.53.12.17 1.75 2.67 4.24 3.74.59.26 1.05.41 1.41.52.59.19 1.13.16 1.55.1.47-.07 1.47-.6 1.68-1.18.21-.58.21-1.08.15-1.18-.06-.1-.23-.16-.48-.28z" fill="#fff"/>
</svg>
